<svg width="15" height="15" viewBox="0 0 15 15" fill="none" xmlns="http://www.w3.org/2000/svg">
<path d="M11.875 1.875H3.125C2.43464 1.875 1.875 2.43464 1.875 3.125V11.875C1.875 12.5654 2.43464 13.125 3.125 13.125H11.875C12.5654 13.125 13.125 12.5654 13.125 11.875V3.125C13.125 2.43464 12.5654 1.875 11.875 1.875Z" stroke="black" stroke-width="0.875" stroke-linecap="round" stroke-linejoin="round"/>
<path d="M5.3125 4.375C5.06386 4.375 4.8254 4.47377 4.64959 4.64959C4.47377 4.8254 4.375 5.06386 4.375 5.3125C4.375 5.56114 4.47377 5.7996 4.64959 5.97541C4.8254 6.15123 5.06386 6.25 5.3125 6.25C5.56114 6.25 5.7996 6.15123 5.97541 5.97541C6.15123 5.7996 6.25 5.56114 6.25 5.3125C6.25 5.06386 6.15123 4.8254 5.97541 4.64959C5.7996 4.47377 5.56114 4.375 5.3125 4.375Z" stroke="black" stroke-width="0.875" stroke-linecap="round" stroke-linejoin="round"/>
<path d="M13.125 9.375L10 6.25L3.125 13.125" stroke="black" stroke-width="0.875" stroke-linecap="round" stroke-linejoin="round"/>
</svg>
