<svg width="67" height="52" viewBox="0 0 67 52" fill="none" xmlns="http://www.w3.org/2000/svg">
<path d="M28.707 6.36457C31.1074 3.1771 35.8925 3.1771 38.2929 6.36457L55.2753 28.9156C58.2529 32.8695 55.4321 38.525 50.4824 38.525H35.7634C35.2403 38.525 34.7741 38.1952 34.6001 37.702V37.702C34.2127 36.6046 32.6608 36.6046 32.2735 37.702V37.702C32.0994 38.1952 31.6332 38.525 31.1102 38.525H16.5176C11.5679 38.525 8.74707 32.8695 11.7246 28.9156L28.707 6.36457Z" fill="#0D0F26"/>
<rect x="27.5445" y="2.97778" width="11.9111" height="3.72222" fill="white"/>
<mask id="mask0_9_24" style="mask-type:alpha" maskUnits="userSpaceOnUse" x="10" y="3" width="47" height="36">
<path d="M28.7071 6.36457C31.1074 3.1771 35.8926 3.1771 38.2929 6.36457L55.2753 28.9156C58.2529 32.8695 55.4321 38.525 50.4824 38.525H16.5176C11.5679 38.525 8.74709 32.8695 11.7247 28.9156L28.7071 6.36457Z" fill="#0D0F26"/>
</mask>
<g mask="url(#mask0_9_24)">
<path d="M21.1531 10.0237C22.107 7.4915 24.5299 5.81509 27.2359 5.81509H38.3111C40.7315 5.81509 42.2935 8.3769 41.1851 10.5285L41.036 10.8181C40.7749 11.3249 40.3394 11.7202 39.8097 11.9311V11.9311C38.948 12.2742 38.3668 13.0897 38.3238 14.0162L38.1986 16.7066C38.1218 18.3587 36.2549 19.2787 34.8979 18.3331V18.3331C34.1053 17.7808 33.0382 17.84 32.3116 18.4766L30.916 19.6992C29.2241 21.1814 26.6946 21.1764 25.0085 19.6877L22.7448 17.6889C20.7214 15.9023 20.0127 13.0511 20.9643 10.5251L21.1531 10.0237Z" fill="#3C98FA"/>
</g>
</svg>
