<svg width="147" height="52" viewBox="0 0 147 52" fill="none" xmlns="http://www.w3.org/2000/svg">
<path d="M28.707 6.36457C31.1074 3.1771 35.8925 3.1771 38.2929 6.36457L55.2753 28.9156C58.2529 32.8695 55.4321 38.525 50.4824 38.525H35.7634C35.2403 38.525 34.7741 38.1952 34.6001 37.702V37.702C34.2127 36.6046 32.6608 36.6046 32.2735 37.702V37.702C32.0994 38.1952 31.6332 38.525 31.1102 38.525H16.5176C11.5679 38.525 8.74707 32.8695 11.7246 28.9156L28.707 6.36457Z" fill="#0D0F26"/>
<rect x="27.5445" y="2.97778" width="11.9111" height="3.72222" fill="white"/>
<mask id="mask0_12_139" style="mask-type:alpha" maskUnits="userSpaceOnUse" x="10" y="3" width="47" height="36">
<path d="M28.7071 6.36457C31.1074 3.1771 35.8926 3.1771 38.2929 6.36457L55.2753 28.9156C58.2529 32.8695 55.4321 38.525 50.4824 38.525H16.5176C11.5679 38.525 8.74709 32.8695 11.7247 28.9156L28.7071 6.36457Z" fill="#0D0F26"/>
</mask>
<g mask="url(#mask0_12_139)">
<path d="M21.1531 10.0237C22.107 7.4915 24.5299 5.81509 27.2359 5.81509H38.3111C40.7315 5.81509 42.2935 8.3769 41.1851 10.5285L41.036 10.8181C40.7749 11.3249 40.3394 11.7202 39.8097 11.9311V11.9311C38.948 12.2742 38.3668 13.0897 38.3238 14.0162L38.1986 16.7066C38.1218 18.3587 36.2549 19.2787 34.8979 18.3331V18.3331C34.1053 17.7808 33.0382 17.84 32.3116 18.4766L30.916 19.6992C29.2241 21.1814 26.6946 21.1764 25.0085 19.6877L22.7448 17.6889C20.7214 15.9023 20.0127 13.0511 20.9643 10.5251L21.1531 10.0237Z" fill="#3C98FA"/>
</g>
<path d="M69.39 17.22L72.45 8.4H75.96L71.19 21H67.59L62.82 8.4H66.33L69.39 17.22ZM84.9593 8.4H88.1993V17.58C88.1993 18.84 87.9113 19.758 87.3353 20.334C86.7713 20.898 85.8593 21.18 84.5993 21.18H80.4593C79.1993 21.18 78.2813 20.898 77.7053 20.334C77.1413 19.758 76.8593 18.84 76.8593 17.58V8.4H80.0993V17.58C80.0993 18.3 80.4593 18.66 81.1793 18.66H83.8793C84.5993 18.66 84.9593 18.3 84.9593 17.58V8.4ZM93.5993 18.48H100.169V21H90.3593V8.4H93.5993V18.48ZM111.154 20.82C108.478 21.06 106.258 21.18 104.494 21.18C103.318 21.18 102.454 20.904 101.902 20.352C101.35 19.8 101.074 18.936 101.074 17.76V12C101.074 10.74 101.356 9.828 101.92 9.264C102.496 8.688 103.414 8.4 104.674 8.4H111.154V10.92H105.394C104.674 10.92 104.314 11.28 104.314 12V17.76C104.314 18.036 104.392 18.258 104.548 18.426C104.716 18.582 104.926 18.66 105.178 18.66C105.43 18.66 105.706 18.66 106.006 18.66C106.306 18.648 106.618 18.636 106.942 18.624C107.266 18.612 107.59 18.6 107.914 18.588C108.25 18.576 108.676 18.552 109.192 18.516C109.72 18.48 110.374 18.438 111.154 18.39V20.82ZM114.846 21H111.336L116.106 8.4H119.706L124.476 21H120.966L120.156 18.75H115.656L114.846 21ZM116.466 16.41H119.346L117.906 12.18L116.466 16.41ZM136.355 21H132.935L128.615 13.44V21H125.375V8.4H128.795L133.115 15.96V8.4H136.355V21Z" fill="#3C98FA"/>
<path d="M103.1 33.202H106.614V34H102.12V24.214H103.1V33.202ZM108.503 24.914C108.307 24.914 108.139 24.844 107.999 24.704C107.859 24.564 107.789 24.3913 107.789 24.186C107.789 23.9807 107.859 23.8127 107.999 23.682C108.139 23.542 108.307 23.472 108.503 23.472C108.699 23.472 108.867 23.542 109.007 23.682C109.147 23.8127 109.217 23.9807 109.217 24.186C109.217 24.3913 109.147 24.564 109.007 24.704C108.867 24.844 108.699 24.914 108.503 24.914ZM108.993 26.356V34H108.013V26.356H108.993ZM112.178 28.05C112.43 27.518 112.817 27.084 113.34 26.748C113.872 26.412 114.497 26.244 115.216 26.244C115.916 26.244 116.541 26.4073 117.092 26.734C117.642 27.0513 118.072 27.5087 118.38 28.106C118.697 28.694 118.856 29.38 118.856 30.164C118.856 30.948 118.697 31.6387 118.38 32.236C118.072 32.8333 117.638 33.2953 117.078 33.622C116.527 33.9487 115.906 34.112 115.216 34.112C114.488 34.112 113.858 33.9487 113.326 33.622C112.803 33.286 112.42 32.852 112.178 32.32V34H111.212V23.64H112.178V28.05ZM117.862 30.164C117.862 29.5293 117.736 28.9833 117.484 28.526C117.241 28.0593 116.905 27.7047 116.476 27.462C116.046 27.2193 115.561 27.098 115.02 27.098C114.497 27.098 114.016 27.224 113.578 27.476C113.148 27.728 112.808 28.0873 112.556 28.554C112.304 29.0207 112.178 29.562 112.178 30.178C112.178 30.794 112.304 31.3353 112.556 31.802C112.808 32.2687 113.148 32.628 113.578 32.88C114.016 33.132 114.497 33.258 115.02 33.258C115.561 33.258 116.046 33.1367 116.476 32.894C116.905 32.642 117.241 32.2827 117.484 31.816C117.736 31.34 117.862 30.7893 117.862 30.164ZM121.639 27.714C121.854 27.238 122.18 26.8693 122.619 26.608C123.067 26.3467 123.613 26.216 124.257 26.216V27.238H123.991C123.282 27.238 122.712 27.4293 122.283 27.812C121.854 28.1947 121.639 28.834 121.639 29.73V34H120.659V26.356H121.639V27.714ZM125.283 30.164C125.283 29.38 125.437 28.694 125.745 28.106C126.063 27.5087 126.497 27.0513 127.047 26.734C127.607 26.4073 128.237 26.244 128.937 26.244C129.665 26.244 130.291 26.412 130.813 26.748C131.345 27.084 131.728 27.5133 131.961 28.036V26.356H132.941V34H131.961V32.306C131.719 32.8287 131.331 33.2627 130.799 33.608C130.277 33.944 129.651 34.112 128.923 34.112C128.233 34.112 127.607 33.9487 127.047 33.622C126.497 33.2953 126.063 32.8333 125.745 32.236C125.437 31.6387 125.283 30.948 125.283 30.164ZM131.961 30.178C131.961 29.562 131.835 29.0207 131.583 28.554C131.331 28.0873 130.986 27.728 130.547 27.476C130.118 27.224 129.642 27.098 129.119 27.098C128.578 27.098 128.093 27.2193 127.663 27.462C127.234 27.7047 126.893 28.0593 126.641 28.526C126.399 28.9833 126.277 29.5293 126.277 30.164C126.277 30.7893 126.399 31.34 126.641 31.816C126.893 32.2827 127.234 32.642 127.663 32.894C128.093 33.1367 128.578 33.258 129.119 33.258C129.642 33.258 130.118 33.132 130.547 32.88C130.986 32.628 131.331 32.2687 131.583 31.802C131.835 31.3353 131.961 30.794 131.961 30.178ZM136.159 27.714C136.373 27.238 136.7 26.8693 137.139 26.608C137.587 26.3467 138.133 26.216 138.777 26.216V27.238H138.511C137.801 27.238 137.232 27.4293 136.803 27.812C136.373 28.1947 136.159 28.834 136.159 29.73V34H135.179V26.356H136.159V27.714ZM146.551 26.356L142.015 37.598H140.993L142.477 33.958L139.341 26.356H140.419L143.023 32.88L145.543 26.356H146.551Z" fill="#0D0F26"/>
</svg>
